<svg class="custom-icon" xmlns="http://www.w3.org/2000/svg" viewBox="0 0 100 100" style="height:100px;width:100px"><path class="outer-shape" fill="#59C6B1" d="M0 0h100v100H0z"/><path class="inner-shape" d="M50 25.5c-13.531 0-24.5 10.969-24.5 24.5S36.469 74.5 50 74.5 74.5 63.531 74.5 50 63.531 25.5 50 25.5zm14.5495 39.0495c-1.891 1.891-4.092 3.375-6.5415 4.4115-.6225.263-1.2545.4945-1.895.6935v-3.672c0-1.93-.662-3.3495-1.986-4.2585.8295-.08 1.591-.1915 2.285-.335.694-.1435 1.4275-.351 2.201-.6225.7735-.2715 1.4675-.5945 2.0815-.969.614-.375 1.2045-.8615 1.7705-1.4595s1.041-1.276 1.4235-2.0335.686-1.667.909-2.7275c.223-1.0605.335-2.229.335-3.505 0-2.4725-.8055-4.5775-2.4165-6.3165.7335-1.914.654-3.9955-.239-6.2445l-.5985-.0715c-.4145-.048-1.1605.1275-2.237.5265-1.0765.399-2.285 1.0525-3.6245 1.962-1.8985-.5265-3.868-.7895-5.91-.7895-2.0575 0-4.0195.263-5.886.7895-.845-.5745-1.647-1.0485-2.4045-1.4235-.7575-.375-1.3635-.63-1.8185-.766-.4545-.1355-.877-.2195-1.268-.2515s-.642-.0395-.7535-.024c-.1115.0155-.1915.032-.239.048-.8935 2.265-.973 4.347-.239 6.2445-1.611 1.7385-2.4165 3.844-2.4165 6.3165 0 1.276.1115 2.4445.335 3.505.2235 1.0605.5265 1.97.909 2.7275.3825.7575.8575 1.4355 1.4235 2.0335s1.1565 1.0845 1.7705 1.4595c.614.3755 1.308.698 2.0815.969.7735.2715 1.507.4785 2.201.6225.694.1435 1.4555.2555 2.285.335-1.308.8935-1.962 2.313-1.962 4.2585v3.7435c-.7225-.215-1.4345-.469-2.134-.765-2.4495-1.0365-4.6505-2.5205-6.5415-4.4115s-3.375-4.092-4.4115-6.5415c-1.0715-2.534-1.615-5.228-1.615-8.008s.5435-5.474 1.6155-8.008c1.0365-2.4495 2.5205-4.6505 4.4115-6.5415s4.092-3.375 6.5415-4.4115c2.534-1.072 5.228-1.6155 8.008-1.6155s5.474.5435 8.008 1.6155c2.45 1.0365 4.6505 2.5205 6.5415 4.4115s3.375 4.092 4.4115 6.5415c1.0715 2.5345 1.615 5.2285 1.615 8.008s-.5435 5.474-1.6155 8.008c-1.0365 2.4495-2.5205 4.6505-4.411 6.5415z" fill="#FFFFFF"/></svg>