<?xml version="1.0" encoding="UTF-8" standalone="no"?>
<svg width="301px" height="201px" viewBox="0 0 301 201" version="1.1" xmlns="http://www.w3.org/2000/svg" xmlns:xlink="http://www.w3.org/1999/xlink" xmlns:sketch="http://www.bohemiancoding.com/sketch/ns">
    <!-- Generator: Sketch 3.2.2 (9983) - http://www.bohemiancoding.com/sketch -->
    <title>Hammer</title>
    <desc>Created with Sketch.</desc>
    <defs>
        <path d="M103.983249,12.8498134 C124.299645,12.8498134 146.573396,17.9885145 162.873734,26.5761039 C169.128451,29.8713464 176.771614,33.7439754 177.859582,39.6688433 C178.755265,44.5475746 173.718348,47.5973647 169.605327,50.9404151 C168.594328,51.762088 164.178638,53.8123834 164.611962,55.0225435 C164.878202,55.7666744 166.250213,56.4457012 166.982372,56.9651741 L173.282285,61.2406716 L197.112388,77.9539801 C202.076171,75.4730255 205.079312,70.8533504 211.081759,69.3444885 C220.448085,66.9900498 230.19761,71.2521377 236.554222,75.8162313 C239.517646,77.9438744 242.204969,80.5847715 242.960411,83.5898632 C243.518912,85.8113728 241.490066,86.6262438 240.388677,88.4483831 C239.472177,89.9638526 239.95864,91.8025109 240.685595,93.306903 C241.796297,95.6053716 244.072756,97.2413324 246.411941,98.9427861 C250.636717,102.015508 254.881763,104.85852 261.481058,103.865633 C266.41608,103.123057 269.586032,100.188511 272.985245,97.7767413 L279.832976,92.7238806 C286.398581,88.0661147 299.184664,81.7902674 294.265254,74.0671642 C291.643942,69.9525808 285.029034,65.3000622 278.46343,64.9689055 C275.442211,64.8167366 273.496086,66.3561101 270.793972,66.6108909 C266.633016,67.0030706 260.86531,64.4974347 258.27632,62.4038013 C253.578502,58.6048274 253.473595,53.1720305 253.014249,48.4141791 C252.789096,46.0811178 252.89729,43.5243703 251.200696,41.4179104 C249.823207,39.7081001 247.267086,38.3292522 245.320413,36.9480721 L233.542316,28.5914179 C226.710746,23.7443641 220.13665,18.6300334 212.451305,14.4502876 C200.77702,8.10117382 186.889822,4.08994092 172.460557,2.243544 C155.35876,0.0551578047 137.458518,0.675307058 120.417803,2.85595849 L108.365797,4.61491371 C107.232634,4.81494869 104.744169,4.91915423 103.990918,5.60628498 C103.476243,6.07575404 103.685784,7.04718595 103.720022,7.60261194 L103.983249,12.8498134 L103.983249,12.8498134 Z M157.669459,60.0746269 L89.1921504,107.687345 L43.997127,138.97699 L13.8671114,159.965796 C9.43460265,163.110619 3.3249367,166.169737 1.58452291,170.65454 C-1.59106843,178.837648 7.0365821,183.881957 14.4149299,189.116915 C22.069296,194.547769 29.430634,201.183535 41.5319439,198.114894 C46.6085776,196.828358 49.8168765,193.364817 53.3344188,190.671642 L76.1225713,172.792289 C101.881269,152.062539 127.924559,131.278568 154.666318,111.186256 L180.17658,91.1691542 L187.173318,85.7276119 C187.857269,85.1772388 189.338022,84.3532338 189.464568,83.5898632 C189.579884,82.8939288 188.405087,82.2737873 187.7992,81.840796 L182.04738,77.5652985 L166.445236,66.2935323 C163.645062,64.2156405 160.999647,61.7389614 157.669459,60.0746269 L157.669459,60.0746269 Z" id="path-1"></path>
    </defs>
    <g id="Page-1" stroke="none" stroke-width="1" fill="none" fill-rule="evenodd" sketch:type="MSPage">
        <g id="Hammer" sketch:type="MSLayerGroup" transform="translate(1.000000, 1.000000)">
            <path d="M-3.77475828e-15,1.33226763e-15 L-3.77475828e-15,172.070312 L2.78608456,167.382812 C5.66346507,164.299414 10.3797794,161.788281 14.0625,159.179688 L39.9816176,141.210938 L123.529412,83.203125 L147.794118,66.40625 C150.987132,64.1445312 155.128952,61.9810547 157.720588,59.375 L181.709559,76.7578125 L187.775735,81.25 C188.370496,81.6726563 189.657353,82.3226563 189.531893,83.0078125 C189.396783,83.7455078 187.855974,84.6242187 187.17739,85.15625 L180.377757,90.4296875 L154.436305,110.742188 L75.8740809,172.265625 L52.6899816,190.429688 C49.2576287,193.05332 46.1335478,196.400391 41.3602941,197.875 C27.8445772,202.056641 18.4716176,192.40918 10.2024265,186.523438 C6.2779136,183.730078 0.793982537,180.571875 0.275735294,176.367188 C-0.856910846,178.279102 -3.77475828e-15,181.516797 -3.77475828e-15,183.59375 L-3.77475828e-15,200 L300,200 L300,1.33226763e-15 L159.099265,1.33226763e-15 C162.144761,0.905228516 166.799173,0.602339844 170.128676,0.992238281 C177.299724,1.83197266 184.290441,3.1334375 191.084559,4.96570313 C208.865625,9.76089844 221.481893,18.9924609 234.650735,28.3203125 C240.083272,32.1683594 247.126379,35.9701172 251.525735,40.4296875 C253.618015,42.5505859 253.463603,45.3957031 253.701011,47.8515625 C254.142187,52.4140625 254.241176,57.5152344 258.336397,61.3279297 C261.003033,63.8109375 267.014338,66.2595703 271.599265,65.9818359 L275.735294,64.71875 C278.997243,63.9617188 282.523897,64.4193359 285.386029,65.7320313 C287.445772,66.6763672 288.940257,68.0904297 290.613971,69.3359375 C292.273897,70.5722656 294.046875,71.8861328 295.094669,73.4375 C300.460478,81.3615234 285.976103,88.1982422 279.319853,92.96875 C274.965993,96.090625 270.608824,100.667773 264.981618,102.660742 C255.904687,105.875586 246.355423,99.4056641 242.237592,94.140625 C240.986029,92.540625 240.042187,90.2810547 240.801011,88.4765625 L243.076654,85.9375 C244.23557,84.3673828 243.688787,82.4230469 242.797886,80.859375 C238.349173,73.0509766 223.342279,65.6474609 211.213235,68.6912109 C206.130331,69.9667969 200.739706,74.2894531 197.702206,77.34375 L173.988971,60.7421875 L167.371324,56.25 L164.946507,54.2976563 C164.497335,53.121875 169.182629,50.8220703 170.207537,50 C174.468199,46.5822266 178.955515,43.6214844 178.045313,38.671875 C176.950643,32.7201172 169.271967,28.8535156 162.959559,25.5632812 C146.477482,16.9724609 124.138511,11.9140625 103.676471,11.9140625 L103.559559,7.421875 C103.422518,6.68294922 103.048346,5.43646484 103.684191,4.77144531 C104.911765,3.48712891 110.980147,3.18894531 113.051471,2.89080078 C122.233456,1.56921094 131.779412,0.1953125 141.176471,0.1953125 C137.952022,-0.763082031 132.278217,1.33226763e-15 128.768382,1.33226763e-15 L100.091912,1.33226763e-15 L-3.77475828e-15,1.33226763e-15 L-3.77475828e-15,1.33226763e-15 Z" id="Shape" fill="#FFFFFF" sketch:type="MSShapeGroup"></path>
            <g id="Shape">
                <use fill="#334D5C" fill-rule="evenodd" sketch:type="MSShapeGroup" xlink:href="#path-1"></use>
                <use fill="none" xlink:href="#path-1"></use>
            </g>
        </g>
    </g>
</svg>