<?xml version="1.0" encoding="UTF-8" standalone="no"?>
<svg width="250px" height="150px" viewBox="0 0 250 150" version="1.1" xmlns="http://www.w3.org/2000/svg" xmlns:xlink="http://www.w3.org/1999/xlink" xmlns:sketch="http://www.bohemiancoding.com/sketch/ns">
    <!-- Generator: Sketch 3.2.2 (9983) - http://www.bohemiancoding.com/sketch -->
    <title>Hammer</title>
    <desc>Created with Sketch.</desc>
    <defs>
        <path d="M87.82369,9.68578902 C104.982808,9.68578902 123.795098,13.5591818 137.562275,20.0322391 C142.844976,22.5160902 149.30035,25.4351574 150.219242,29.9011382 C150.975731,33.5785738 146.721578,35.8774106 143.247743,38.3972978 C142.393858,39.0166492 138.66439,40.562098 139.030373,41.474279 C139.255238,42.0351817 140.414031,42.5470109 141.032409,42.9385735 L146.353281,46.1613103 L166.480057,58.7592815 C170.672442,56.8892152 173.208878,53.4070481 178.278513,52.2697149 C186.189261,50.4950124 194.423657,53.7076415 199.792417,57.1479131 C202.295309,58.7516641 204.565008,60.74229 205.20305,63.0074346 C205.674757,64.6819393 203.961205,65.2961637 203.030977,66.6696355 C202.256906,67.8119492 202.66777,69.1978725 203.281752,70.3318364 C204.219845,72.0643504 206.142531,73.2974867 208.118194,74.5799895 C211.686417,76.8961119 215.271759,79.0390854 220.845488,78.290678 C225.013581,77.7309472 227.690905,75.5189778 230.561863,73.7010613 L236.345419,69.8923723 C241.890693,66.3814935 252.68975,61.6509553 248.534843,55.8295207 C246.320897,52.728076 240.733982,49.2211524 235.188708,48.9715368 C232.637003,48.8568367 230.993316,50.0171684 228.711125,50.2092142 C225.196804,50.5048271 220.32543,48.6161568 218.138783,47.0380412 C214.171032,44.174493 214.082428,40.07942 213.694467,36.4930998 C213.504304,34.7345109 213.595684,32.8073143 212.16275,31.2195305 C210.99933,29.9307287 208.840444,28.8913961 207.196295,27.8503056 L197.248578,21.55132 C191.47867,17.8977619 185.926225,14.0427388 179.435224,10.8921766 C169.575185,6.10641243 157.846133,3.08287004 145.659254,1.69111357 C131.215169,0.0415762347 116.096721,0.509025421 101.704225,2.15273253 L91.5251661,3.47857818 C90.5681032,3.62935831 88.4663588,3.7079052 87.8301676,4.22584295 C87.3954755,4.5797141 87.5724523,5.3119492 87.6013701,5.73061202 L87.82369,9.68578902 L87.82369,9.68578902 Z M133.166772,45.2823821 L75.3312081,81.1713652 L37.1597356,104.756525 L11.7120873,120.577233 C7.9684144,122.947703 2.80822356,125.253571 1.33827949,128.634075 C-1.34380779,134.802247 5.94305921,138.604491 12.1747719,142.550439 C18.6396081,146.644047 24.8569544,151.645881 35.0776553,149.332835 C39.3653527,148.363084 42.0750646,145.752374 45.0459618,143.722343 L64.2927123,130.245444 C86.0483695,114.620004 108.044391,98.9536945 130.630336,83.8087358 L152.176166,68.720468 L158.085572,64.618803 C158.663234,64.2039488 159.91387,63.5828396 160.02075,63.0074346 C160.118145,62.4828609 159.125918,62.0154176 158.614189,61.6890422 L153.756233,58.4663054 L140.578747,49.9699992 C138.213735,48.4037492 135.979432,46.5369056 133.166772,45.2823821 L133.166772,45.2823821 Z" id="path-1"></path>
    </defs>
    <g id="Page-1" stroke="none" stroke-width="1" fill="none" fill-rule="evenodd" sketch:type="MSPage">
        <g id="Hammer" sketch:type="MSLayerGroup">
            <g id="Shape">
                <use fill="#476170" fill-rule="evenodd" sketch:type="MSShapeGroup" xlink:href="#path-1"></use>
                <use fill="none" xlink:href="#path-1"></use>
            </g>
        </g>
    </g>
</svg>