<?xml version="1.0" encoding="UTF-8" standalone="no"?>
<svg width="296px" height="199px" viewBox="0 0 296 199" version="1.1" xmlns="http://www.w3.org/2000/svg" xmlns:xlink="http://www.w3.org/1999/xlink" xmlns:sketch="http://www.bohemiancoding.com/sketch/ns">
    <!-- Generator: Sketch 3.2.2 (9983) - http://www.bohemiancoding.com/sketch -->
    <title>Shape</title>
    <desc>Created with Sketch.</desc>
    <defs>
        <path d="M364.983249,254.849813 C385.299645,254.849813 407.573396,259.988514 423.873734,268.576104 C430.128451,271.871346 437.771614,275.743975 438.859582,281.668843 C439.755265,286.547575 434.718348,289.597365 430.605327,292.940415 C429.594328,293.762088 425.178638,295.812383 425.611962,297.022544 C425.878202,297.766674 427.250213,298.445701 427.982372,298.965174 L434.282285,303.240672 L458.112388,319.95398 C463.076171,317.473025 466.079312,312.85335 472.081759,311.344488 C481.448085,308.99005 491.19761,313.252138 497.554222,317.816231 C500.517646,319.943874 503.204969,322.584771 503.960411,325.589863 C504.518912,327.811373 502.490066,328.626244 501.388677,330.448383 C500.472177,331.963853 500.95864,333.802511 501.685595,335.306903 C502.796297,337.605372 505.072756,339.241332 507.411941,340.942786 C511.636717,344.015508 515.881763,346.85852 522.481058,345.865633 C527.41608,345.123057 530.586032,342.188511 533.985245,339.776741 L540.832976,334.723881 C547.398581,330.066115 560.184664,323.790267 555.265254,316.067164 C552.643942,311.952581 546.029034,307.300062 539.46343,306.968905 C536.442211,306.816737 534.496086,308.35611 531.793972,308.610891 C527.633016,309.003071 521.86531,306.497435 519.27632,304.403801 C514.578502,300.604827 514.473595,295.17203 514.014249,290.414179 C513.789096,288.081118 513.89729,285.52437 512.200696,283.41791 C510.823207,281.7081 508.267086,280.329252 506.320413,278.948072 L494.542316,270.591418 C487.710746,265.744364 481.13665,260.630033 473.451305,256.450288 C461.77702,250.101174 447.889822,246.089941 433.460557,244.243544 C416.35876,242.055158 398.458518,242.675307 381.417803,244.855958 L369.365797,246.614914 C368.232634,246.814949 365.744169,246.919154 364.990918,247.606285 C364.476243,248.075754 364.685784,249.047186 364.720022,249.602612 L364.983249,254.849813 L364.983249,254.849813 Z M418.669459,302.074627 L350.19215,349.687345 L304.997127,380.97699 L274.867111,401.965796 C270.434603,405.110619 264.324937,408.169737 262.584523,412.65454 C259.408932,420.837648 268.036582,425.881957 275.41493,431.116915 C283.069296,436.547769 290.430634,443.183535 302.531944,440.114894 C307.608578,438.828358 310.816876,435.364817 314.334419,432.671642 L337.122571,414.792289 C362.881269,394.062539 388.924559,373.278568 415.666318,353.186256 L441.17658,333.169154 L448.173318,327.727612 C448.857269,327.177239 450.338022,326.353234 450.464568,325.589863 C450.579884,324.893929 449.405087,324.273787 448.7992,323.840796 L443.04738,319.565299 L427.445236,308.293532 C424.645062,306.215641 421.999647,303.738961 418.669459,302.074627 L418.669459,302.074627 Z" id="path-1"></path>
    </defs>
    <g id="Page-1" stroke="none" stroke-width="1" fill="none" fill-rule="evenodd" sketch:type="MSPage">
        <g id="Hammer" sketch:type="MSLayerGroup" transform="translate(-261.000000, -242.000000)">
            <g id="Shape">
                <use fill="#476170" fill-rule="evenodd" sketch:type="MSShapeGroup" xlink:href="#path-1"></use>
                <use fill="none" xlink:href="#path-1"></use>
            </g>
        </g>
    </g>
</svg>