<svg class="custom-icon" xmlns="http://www.w3.org/2000/svg" viewBox="0 0 100 100" style="height:100px;width:100px"><path class="outer-shape" fill="#F35D5D" d="M0 0h100v100H0z"/><path class="inner-shape" d="M66.2695 25.5h-32.539c-4.5265 0-8.2305 3.704-8.2305 8.2305v32.539c0 4.5265 3.704 8.2305 8.2305 8.2305h32.539c4.5265 0 8.2305-3.704 8.2305-8.2305v-32.539c0-4.5265-3.704-8.2305-8.2305-8.2305zM43.875 65.3125H37.75V43.875h6.125v21.4375zm-3.0625-24.5c-1.6915 0-3.0625-1.371-3.0625-3.0625s1.371-3.0625 3.0625-3.0625 3.0625 1.371 3.0625 3.0625-1.371 3.0625-3.0625 3.0625zm24.5 24.5h-6.125v-12.25c0-1.6915-1.371-3.0625-3.0625-3.0625s-3.0625 1.371-3.0625 3.0625v12.25h-6.125V43.875h6.125v3.803c1.263-1.735 3.1945-3.803 5.3595-3.803 3.806 0 6.891 3.428 6.891 7.656l-.0005 13.7815z" fill="#F3F3FF"/></svg>