<svg class="custom-icon" xmlns="http://www.w3.org/2000/svg" viewBox="0 0 100 100" style="height:100px;width:100px"><path class="outer-shape" fill="#59C6B1" d="M0 0h100v100H0z"/><path class="inner-shape" d="M50 25.5c-13.531 0-24.5 10.969-24.5 24.5S36.469 74.5 50 74.5 74.5 63.531 74.5 50 63.531 25.5 50 25.5zM37.75 37.75h24.5c.437 0 .8615.094 1.251.271L50 53.772 36.499 38.0205c.3895-.177.814-.271 1.251-.2705zm-3.0625 21.4375v-18.375c0-.064.0025-.128.007-.1915l8.98 10.4765-8.881 8.8815c-.0695-.2555-.1055-.521-.106-.7915zM62.25 62.25h-24.5c-.2705 0-.536-.0365-.7915-.106l8.7145-8.7145L50 58.478l4.3265-5.048 8.7145 8.7145c-.255.069-.5205.1055-.791.1055zm3.0625-3.0625c0 .2705-.0365.536-.1055.7915l-8.881-8.8815 8.98-10.4765c.004.0635.007.1275.007.1915l-.0005 18.375z" fill="#FFFFFF"/></svg>