<?xml version="1.0" encoding="UTF-8" standalone="no"?>
<svg width="302px" height="202px" viewBox="0 0 302 202" version="1.1" xmlns="http://www.w3.org/2000/svg" xmlns:xlink="http://www.w3.org/1999/xlink" xmlns:sketch="http://www.bohemiancoding.com/sketch/ns">
    <!-- Generator: Sketch 3.2.2 (9983) - http://www.bohemiancoding.com/sketch -->
    <title>lightest- blue-name-card-green-signature</title>
    <desc>Created with Sketch.</desc>
    <defs></defs>
    <g id="Page-1" stroke="none" stroke-width="1" fill="none" fill-rule="evenodd" sketch:type="MSPage">
        <g id="lightest--blue-name-card-green-signature" sketch:type="MSLayerGroup" transform="translate(1.000000, -20.000000)">
            <g id="card" transform="translate(0.000000, 21.000000)" stroke="#D3EDFC" stroke-width="0.5" stroke-linecap="square">
                <rect id="Rectangle-1" sketch:type="MSShapeGroup" x="0" y="0" width="300" height="200" rx="5"></rect>
                <path d="M0,45 L300,45" id="Top-Line" sketch:type="MSShapeGroup"></path>
                <path d="M0,154 L300,154" id="Line-2" sketch:type="MSShapeGroup"></path>
                <text id="Hello,-my-name-is:" fill="#D3EDFC" sketch:type="MSTextLayer" font-family="Open Sans" font-size="22" font-weight="normal" sketch:alignment="middle">
                    <tspan x="56.2314453" y="31">Hello, my name is:</tspan>
                </text>
                <path d="M16.3535534,129.853553 L6.35355339,139.853553 L6,140.207107 L5.29289322,139.5 L5.64644661,139.146447 L15.6464466,129.146447 L16,128.792893 L16.7071068,129.5 L16.3535534,129.853553 M5.64644661,129.853553 L15.6464466,139.853553 L16,140.207107 L16.7071068,139.5 L16.3535534,139.146447 L6.35355339,129.146447 L6,128.792893 L5.29289322,129.5 L5.64644661,129.853553" id="Line" sketch:type="MSShapeGroup"></path>
                <path d="M23.5,134.25 L295,134.25" id="Line" sketch:type="MSShapeGroup"></path>
            </g>
            <g id="signature" transform="translate(13.000000, 0.000000)" sketch:type="MSShapeGroup">
                <path d="M0,0 L0,242.713076 L273.929437,242.713076 L273.929437,0 L0,0 L0,0 Z" id="Shape"></path>
                <path d="M34.5086888,105.554905 C33.6153418,105.91376 33.0508973,106.853009 32.3686151,107.582255 C30.5510237,109.525223 28.8492638,111.705375 27.2752396,113.929771 C24.5556072,117.773044 21.8670058,121.932665 20.4750216,126.729093 C18.8379989,132.369802 19.7588994,138.952446 22.3938652,143.952872 C23.9902264,146.982045 26.0660979,149.400801 28.2222222,151.855427 C31.1970585,155.242033 36.0601085,161.280943 40.6614007,160.497182 C43.2714882,160.053156 44.5611501,157.452049 45.2074523,154.697982 C46.4425424,149.435881 46.011585,143.666547 46.011585,138.264285 C46.011585,125.260331 44.2331838,112.346447 43.4822854,99.3922686 C42.9809731,90.7440351 43.449783,81.3973695 44.7074776,72.845526 C44.8769447,71.6927969 45.0668763,70.4144448 45.530336,69.3691668 L46.8141127,66.6828893 C45.3211438,66.3531092 43.7262538,69.0815771 42.9558273,70.3172647 C39.9095661,75.2032875 40.5511869,81.6650491 39.915585,87.3830279 C38.0344602,104.309579 42.5728878,121.612682 43.6159063,138.422301 C43.9093639,143.151888 44.4015808,148.227056 43.9096314,152.959803 C43.7582212,154.416239 43.7518009,156.609822 42.9358978,157.81043 C42.336811,158.692635 40.8917262,158.313396 40.1263823,158.000366 C37.7094365,157.01229 35.4801485,154.838775 33.5724065,152.892646 C27.0352838,146.223883 19.7756187,137.795608 22.0232312,126.571077 C23.1753934,120.81707 26.7069163,115.838134 29.9837704,111.559526 C31.2018736,109.968933 34.2253965,107.723995 34.5086888,105.554905 L34.5086888,105.554905 L34.5086888,105.554905 Z" id="Shape" fill="#45B29D"></path>
                <path id="Shape" fill="#45B29D" d="M46.6803581,66.5248729 L46.8141127,66.6828893 L46.6803581,66.5248729 L46.6803581,66.5248729 Z"></path>
                <path d="M45.0753028,67.4729709 L45.2090574,67.6309872 L45.0753028,67.4729709 L45.0753028,67.4729709 Z M42.4002106,71.1073464 L42.5339652,71.2653627 L42.4002106,71.1073464 L42.4002106,71.1073464 Z" id="Shape" fill="#45B29D"></path>
                <path d="M45.8778304,88.1731095 C48.9981917,88.1426124 52.7402443,87.7630571 55.7756714,86.9089789 C56.6373186,91.0407898 57.0199905,95.4826287 57.40293,99.7083012 L58.0494997,107.293085 L55.240653,108.049825 C53.1163623,108.584394 50.3818831,108.602408 49.7567141,111.717542 C52.3499484,111.654019 55.9356419,110.400002 58.317009,109.189281 C58.4361843,116.011004 59.515049,122.917107 59.9100263,129.731403 C60.6569121,142.616054 60.81501,155.531519 60.7245919,168.445403 C61.7043444,168.276325 62.8512902,167.089623 63.0741253,165.917142 L62.9984202,162.598799 L63.0036367,154.065917 C63.4028942,143.294892 63.4028942,132.442015 63.0036367,121.67257 C62.8340358,117.094838 62.905862,112.285137 62.1958926,107.767134 C64.3402464,107.425661 66.5879926,106.280832 68.6161137,105.405264 C72.5201432,103.719862 76.519941,102.057056 79.5839916,98.5960243 C81.2933755,96.6650648 83.0804708,94.449834 83.1901496,91.4914523 C83.3303244,87.7091736 80.7860442,84.9985615 78.1126909,83.473388 C74.3485687,81.3261041 69.8633755,81.4784318 65.807267,81.6882775 C63.8503033,81.789408 61.5388899,81.6682095 59.654555,82.3265055 C59.6326193,81.7328381 59.537921,79.6345394 58.9452543,79.4550328 C57.6814071,79.0721592 56.4362854,82.0695709 55.5061559,82.6382717 C53.7463465,83.7142048 51.2146393,82.8282073 49.3554502,83.5675657 C48.3774365,83.9564439 47.506694,85.0600299 46.8542391,85.9608809 C46.3703149,86.629132 45.9935282,87.297383 45.8778304,88.1731095 L45.8778304,88.1731095 L45.8778304,88.1731095 Z" id="Shape" fill="#45B29D"></path>
                <path id="Shape" fill="#45B29D" d="M57.6482359,80.1142769 L57.7819905,80.2722932 L57.6482359,80.1142769 L57.6482359,80.1142769 Z"></path>
                <path d="M107.271195,91.807485 C104.424362,92.2418719 99.3588078,93.8332543 98.9784097,97.9701217 C101.485506,97.673209 104.419146,96.415399 106.869932,95.5998768 C106.838499,100.091017 106.093219,104.722001 105.688343,109.189281 C105.574919,110.440928 105.783309,113.363756 105.050468,114.322757 C104.072053,115.603163 101.116343,115.486863 99.7809373,115.697657 C98.166118,115.952696 96.2843244,118.463575 95.9020537,120.250424 C98.5906551,121.189357 102.235869,118.838706 104.863612,118.196211 L102.845389,141.108578 C102.691438,143.759934 102.11549,147.885109 103.711985,150.100813 C105.441967,152.501556 109.014018,152.499975 111.417588,152.195952 C117.716628,151.399234 124.234891,148.16938 129.741969,144.562973 C131.645833,143.316225 135.611122,141.479127 136.162191,138.738334 C134.450132,139.03335 132.522326,141.237678 130.945761,142.175505 C125.695759,145.298697 119.503054,148.691624 113.557662,149.171361 C111.226854,149.359401 108.486222,149.363983 106.614862,147.377244 C104.766908,145.415155 105.523424,141.896132 105.669484,139.370399 C106.105791,131.822117 107.537501,124.280946 108.341232,116.774064 C110.460975,116.55537 112.729855,115.311623 114.761453,114.565944 L126.130595,110.14528 C127.914213,109.35978 130.531924,107.819911 130.678252,105.238873 L120.512902,109.075509 C116.661304,110.446301 112.433722,111.420945 108.742496,113.297705 C109.394416,107.203174 110.477828,100.795296 110.481306,94.6517788 L117.971564,92.6645655 L131.079516,89.2586817 C133.21036,88.6473165 136.678483,87.4952195 136.964718,84.3807177 C128.339017,86.7383213 119.417986,88.0245742 110.88257,90.859387 C111.237956,88.5978574 111.337068,86.2007497 111.422805,83.9066687 C111.457581,82.9776907 111.646576,82.1356217 111.417588,81.2203912 C107.358136,82.4326924 107.273469,87.8434874 107.271195,91.807485 L107.271195,91.807485 L107.271195,91.807485 Z" id="Shape" fill="#45B29D"></path>
                <path id="Shape" fill="#45B29D" d="M80.2527646,85.012783 L80.3865192,85.1707993 L80.2527646,85.012783 L80.2527646,85.012783 Z"></path>
                <path id="Shape" fill="#45B29D" d="M62.5971564,86.1188973 L62.730911,86.2769136 L62.5971564,86.1188973 L62.5971564,86.1188973 Z"></path>
                <path d="M60.1895735,86.4349299 C61.1879179,92.7650639 61.6339895,99.3033054 62.062138,105.712922 C66.4363149,104.03147 70.807683,102.304035 75.0363349,100.158648 C76.4917188,99.4200795 78.8658631,98.4448027 79.6586266,96.7036208 C81.1475829,93.4331569 78.7889542,90.1688557 76.5076356,88.6270904 C71.8036198,85.4478019 65.4049331,85.6562255 60.1895735,86.4349299 L60.1895735,86.4349299 L60.1895735,86.4349299 Z" id="Shape" fill="#334D5C"></path>
                <path d="M122.78673,87.6990605 L122.920484,87.8570769 L122.78673,87.6990605 L122.78673,87.6990605 Z M107.40495,88.3311258 L107.538705,88.4891422 L107.40495,88.3311258 L107.40495,88.3311258 Z M117.837809,88.9631911 L117.971564,89.1212075 L117.837809,88.9631911 L117.837809,88.9631911 Z M130.009479,89.4372401 L130.143233,89.5952564 L130.009479,89.4372401 L130.009479,89.4372401 Z M112.888889,90.2273217 L113.022643,90.3853381 L112.888889,90.2273217 L112.888889,90.2273217 Z" id="Shape" fill="#45B29D"></path>
                <path d="M120.245392,91.9655013 L120.379147,92.1235176 L120.245392,91.9655013 L120.245392,91.9655013 Z M79.7177462,92.5975666 L79.8515008,92.7555829 L79.7177462,92.5975666 L79.7177462,92.5975666 Z" id="Shape" fill="#45B29D"></path>
                <path id="Shape" fill="#45B29D" d="M117.837809,92.5975666 L117.971564,92.7555829 L117.837809,92.5975666 L117.837809,92.5975666 Z"></path>
                <path id="Shape" fill="#45B29D" d="M114.895208,93.3876482 L115.028963,93.5456646 L114.895208,93.3876482 L114.895208,93.3876482 Z"></path>
                <path d="M101.252238,94.1777299 L101.385993,94.3357462 L101.252238,94.1777299 L101.252238,94.1777299 Z M110.481306,94.6517788 L110.615061,94.8097952 L110.481306,94.6517788 L110.481306,94.6517788 Z M82.1253291,94.9678115 L82.2590837,95.1258278 L82.1253291,94.9678115 L82.1253291,94.9678115 Z M61.1258557,95.1258278 L61.2596103,95.2838441 L61.1258557,95.1258278 L61.1258557,95.1258278 Z M106.602422,95.5998768 L106.736177,95.7578931 L106.602422,95.5998768 L106.602422,95.5998768 Z" id="Shape" fill="#45B29D"></path>
                <path d="M246.375987,143.478823 L243.159189,132.417681 C242.82614,131.342063 241.774829,129.155434 241.95941,128.022298 C242.046351,127.493418 242.707098,127.089528 243.020084,126.749635 C243.783823,125.920049 244.653228,124.999762 244.770932,123.726783 C243.811912,123.825543 241.824318,124.867187 240.948225,124.195775 C240.117609,123.559759 239.771185,120.70077 239.464887,119.618358 L235.853512,106.66102 C235.394734,105.032503 234.763412,101.541765 233.389753,100.660824 C231.478399,99.435249 229.53227,103.696791 229.044065,105.238873 C227.640979,109.672811 226.364961,114.234742 225.393902,118.828277 L224.547235,123.094717 L224.073744,125.09868 C223.493249,125.914361 221.287636,125.516476 220.427593,125.652686 C218.822538,125.906934 216.928573,128.428242 216.54871,130.205452 C218.567067,130.86122 221.389289,129.889419 223.503949,129.889419 C222.569005,133.153405 222.360348,136.926202 221.842717,140.318497 C221.255534,144.159716 220.288489,148.125135 220.02633,152.011705 C221.553807,151.73012 223.267204,149.69487 223.877125,148.061297 C224.713091,145.822047 224.800032,142.875833 225.165182,140.476513 C225.704213,136.952433 226.651195,133.153247 226.71406,129.573387 C230.381611,129.573387 234.779463,129.629957 238.350711,128.625289 C238.600832,130.342294 239.40871,132.066094 239.955766,133.681811 C241.661137,138.720794 244.197125,144.418862 244.235914,149.957493 C245.253786,149.724893 246.211469,148.680089 246.643497,147.587248 C247.135714,149.502564 247.019347,151.621879 247.217304,153.591868 C247.269468,154.11506 247.173165,155.282169 247.733597,155.430862 C248.48931,155.631543 249.35604,154.573782 249.853607,154.038896 C251.498789,152.268165 252.741369,149.896182 253.995987,147.745264 C257.833407,141.170205 262.229921,135.405769 267.107952,129.895582 C269.219937,127.509852 273.073407,124.168438 273.661927,120.566456 C272.274892,120.805693 271.533892,122.486513 270.806266,123.726783 C270.03584,125.042269 269.058094,126.25931 268.044234,127.315966 C263.234418,132.327927 258.686761,137.810304 254.746351,143.794856 C253.245624,146.073135 251.480063,148.471665 250.388626,151.063607 C249.754629,149.508884 249.856282,147.234713 249.853607,145.533036 L249.719853,137.632219 L248.922675,110.295395 L248.344855,99.8663176 C248.233839,98.8986256 248.157599,96.8545264 247.486151,96.1761623 C247.060811,95.746832 246.442865,96.3913806 246.108478,96.6901894 C245.241748,97.4636793 243.432048,99.1843191 243.652744,100.656399 L244.465972,104.606807 C245.247098,111.465032 245.185571,118.417592 245.585498,125.306946 C245.93326,131.317097 246.375987,137.454293 246.375987,143.478823 L246.375987,143.478823 L246.375987,143.478823 Z" id="Shape" fill="#45B29D"></path>
                <path id="Shape" fill="#45B29D" d="M247.446024,95.9159094 L247.579779,96.0739258 L247.446024,95.9159094 L247.446024,95.9159094 Z"></path>
                <path id="Shape" fill="#45B29D" d="M110.347551,96.0739258 L110.481306,96.2319421 L110.347551,96.0739258 L110.347551,96.0739258 Z"></path>
                <path id="Shape" fill="#45B29D" d="M245.974724,96.7059911 L246.108478,96.8640074 L245.974724,96.7059911 L245.974724,96.7059911 Z"></path>
                <path d="M80.5202738,97.3380564 L80.6540284,97.4960727 L80.5202738,97.3380564 L80.5202738,97.3380564 Z M80.3865192,97.4960727 L80.5202738,97.654089 L80.3865192,97.4960727 L80.3865192,97.4960727 Z M80.2527646,97.654089 L80.3865192,97.8121053 L80.2527646,97.654089 L80.2527646,97.654089 Z M80.11901,97.8121053 L80.2527646,97.9701217 L80.11901,97.8121053 L80.11901,97.8121053 Z" id="Shape" fill="#45B29D"></path>
                <path d="M212.536072,144.90097 C208.626424,136.986565 205.535355,128.438513 202.069774,120.250424 L198.891764,113.297705 L197.330848,110.605265 C196.878757,108.527666 197.920706,106.29774 198.090574,104.290775 C196.104318,104.545655 194.255829,107.529635 193.797051,109.66333 L193.331585,112.823656 L191.937862,115.66795 L192.071617,115.825966 L193.275408,115.509934 C193.275408,126.3764 193.279421,137.362327 193.682022,148.219313 L194.077936,159.280456 C197.998283,158.441389 197.020537,153.420736 197.020537,150.115509 L197.154292,122.462652 L206.142601,142.214693 L210.001422,149.64146 C210.854776,151.229208 211.956914,152.871156 212.402317,154.697982 C217.046277,154.412763 216.211648,146.911254 216.001654,143.320807 C215.585677,136.18953 215.223202,129.140738 215.076072,121.988603 C215.001169,118.379984 214.697546,114.684298 215.134924,111.085477 C215.450585,108.483422 215.941464,105.751952 216.857683,103.342677 C217.526456,101.584745 218.80515,99.6992943 219.090047,97.8121053 C218.065487,97.9435749 217.320474,98.873817 216.649026,99.735164 C214.974418,101.885608 214.217367,105.634704 213.549932,108.399199 C212.295313,113.600939 212.268562,118.839812 212.268562,124.200832 L212.536072,144.90097 L212.536072,144.90097 Z" id="Shape" fill="#45B29D"></path>
                <path d="M79.9852554,97.9701217 L80.11901,98.128138 L79.9852554,97.9701217 L79.9852554,97.9701217 Z M217.083728,99.0762359 L217.217483,99.2342523 L217.083728,99.0762359 L217.083728,99.0762359 Z" id="Shape" fill="#45B29D"></path>
                <path id="Shape" fill="#45B29D" d="M78.7814639,99.2342523 L78.9152185,99.3922686 L78.7814639,99.2342523 L78.7814639,99.2342523 Z"></path>
                <path id="Shape" fill="#45B29D" d="M216.949974,99.2342523 L217.083728,99.3922686 L216.949974,99.2342523 L216.949974,99.2342523 Z"></path>
                <path id="Shape" fill="#45B29D" d="M217.752501,100.814416 L217.886256,100.972432 L217.752501,100.814416 L217.752501,100.814416 Z"></path>
                <path id="Shape" fill="#45B29D" d="M243.700895,100.972432 L243.83465,101.130448 L243.700895,100.972432 L243.700895,100.972432 Z"></path>
                <path id="Shape" fill="#45B29D" d="M71.4249605,101.762513 L71.5587151,101.92053 L71.4249605,101.762513 L71.4249605,101.762513 Z"></path>
                <path d="M151.81148,107.293085 L157.027909,108.083166 C156.138441,109.490144 156.492891,111.006469 156.492891,112.66564 L156.492891,122.778685 C153.551627,120.925943 149.989742,120.279973 146.728805,119.70985 C141.335819,118.76665 135.845192,118.483643 130.410742,118.202374 C126.785591,118.014967 123.264501,118.052732 119.710374,117.090097 C122.242616,115.496818 125.366589,114.689039 128.136914,113.87083 C132.736735,112.512206 137.369995,111.291214 142.047393,110.364132 L146.060032,110.020131 C147.448404,109.539603 149.381159,107.097461 149.537651,105.396889 C144.887004,105.396889 140.281833,106.754565 135.760927,107.980298 C132.599904,108.83722 129.475664,109.820872 126.398104,111.032857 C123.283227,112.25938 119.482322,113.652452 117.037288,116.326878 C116.504677,116.909326 114.523103,119.268826 115.377661,120.238572 C115.840318,120.763661 116.831573,120.986464 117.436546,121.173871 C119.703151,121.876095 122.081308,121.559273 124.391785,121.678733 C131.997072,122.072194 139.718726,121.519295 147.263823,122.975573 C149.640642,123.434452 151.980011,123.93331 154.219063,125.023149 C155.385403,125.590901 156.459452,126.381457 156.492891,127.993223 C155.266361,128.055324 154.307341,128.352079 153.428573,129.421533 C152.89623,130.068926 152.010774,131.352493 153.28278,131.469583 C147.301274,135.232741 139.459242,136.030724 132.818325,136.374251 L129.47446,136.345018 L127.869405,135.868125 C126.880825,136.117633 125.910569,137.631429 125.729331,138.738334 C128.855845,139.434237 132.216028,138.962085 135.359663,138.60718 C141.318431,137.934505 147.491206,136.798367 152.881517,133.506571 L156.492891,130.521485 L156.759063,148.851378 C156.837978,152.683432 156.701548,156.768628 157.295419,160.544586 C158.49921,160.125843 160.244708,158.499855 160.355724,156.910211 L159.993249,153.749884 L159.970511,149.009395 L160.23802,129.889419 C163.707615,129.565328 167.327014,128.737006 170.670879,127.610666 C172.972796,126.83528 175.099494,125.779415 177.091101,124.200674 C180.105929,121.811151 184.511806,116.395141 181.327109,112.039737 C180.603497,111.050713 179.525434,110.328895 178.562401,109.712157 C174.575176,107.158613 169.853639,105.851818 165.45445,104.697825 C162.720506,103.980431 159.957135,103.053033 157.161664,102.737474 C154.847709,102.476273 152.393312,104.57631 151.81148,107.293085 L151.81148,107.293085 L151.81148,107.293085 Z" id="Shape" fill="#45B29D"></path>
                <path d="M157.429173,102.710611 L157.562928,102.868628 L157.429173,102.710611 L157.429173,102.710611 Z M68.0810953,103.18466 L68.2148499,103.342677 L68.0810953,103.18466 L68.0810953,103.18466 Z" id="Shape" fill="#45B29D"></path>
                <path id="Shape" fill="#45B29D" d="M73.1637704,103.18466 L73.297525,103.342677 L73.1637704,103.18466 L73.1637704,103.18466 Z"></path>
                <path id="Shape" fill="#45B29D" d="M161.709321,103.658709 L161.843075,103.816726 L161.709321,103.658709 L161.709321,103.658709 Z"></path>
                <path d="M184.180095,154.697982 C185.394587,154.550079 187.078557,152.77761 187.424982,151.37964 C187.630964,150.546578 187.247088,149.241363 187.161485,148.377329 L186.950153,142.846758 C186.544876,138.78005 186.988942,134.59641 186.988942,130.521485 C186.988942,121.54995 187.065182,112.604962 187.390205,103.658709 C182.659305,104.531118 183.110058,111.725285 183.110058,115.825966 C183.110058,128.615492 182.168425,142.082907 184.180095,154.697982 L184.180095,154.697982 L184.180095,154.697982 Z" id="Shape" fill="#45B29D"></path>
                <path id="Shape" fill="#45B29D" d="M165.320695,104.606807 L165.45445,104.764824 L165.320695,104.606807 L165.320695,104.606807 Z"></path>
                <path id="Shape" fill="#45B29D" d="M185.651395,104.606807 L185.78515,104.764824 L185.651395,104.606807 L185.651395,104.606807 Z"></path>
                <path id="Shape" fill="#45B29D" d="M62.9984202,105.238873 L63.1321748,105.396889 L62.9984202,105.238873 L62.9984202,105.238873 Z"></path>
                <path id="Shape" fill="#45B29D" d="M230.994207,105.870938 L231.127962,106.028954 L230.994207,105.870938 L230.994207,105.870938 Z"></path>
                <path d="M230.994207,106.028954 L229.045403,114.719852 L227.382833,125.14893 L236.87941,124.674881 C236.744318,123.076229 236.014018,121.437758 235.548552,119.934391 L232.87346,111.085477 C232.379905,109.491724 232.036156,107.247576 230.994207,106.028954 L230.994207,106.028954 L230.994207,106.028954 Z" id="Shape" fill="#334D5C"></path>
                <path id="Shape" fill="#45B29D" d="M130.410742,106.186971 L130.544497,106.344987 L130.410742,106.186971 L130.410742,106.186971 Z"></path>
                <path id="Shape" fill="#45B29D"></path>
                <path id="Shape" fill="#45B29D"></path>
                <path id="Shape" fill="#45B29D" d="M148.601369,107.293085 L148.735124,107.451101 L148.601369,107.293085 L148.601369,107.293085 Z"></path>
                <path d="M152.346498,107.293085 L152.480253,107.451101 L152.346498,107.293085 L152.346498,107.293085 Z M32.2348605,107.609118 L32.3686151,107.767134 L32.2348605,107.609118 L32.2348605,107.609118 Z M32.1011058,107.767134 L32.2348605,107.92515 L32.1011058,107.767134 L32.1011058,107.767134 Z M194.077936,108.399199 L194.21169,108.557215 L194.077936,108.399199 L194.077936,108.399199 Z M213.472354,108.399199 L213.606108,108.557215 L213.472354,108.399199 L213.472354,108.399199 Z M176.823591,108.715232 L176.957346,108.873248 L176.823591,108.715232 L176.823591,108.715232 Z M160.371775,108.873248 L160.505529,109.031264 L160.371775,108.873248 L160.371775,108.873248 Z" id="Shape" fill="#45B29D"></path>
                <path d="M160.371775,109.031264 L160.371775,127.203142 C165.011722,126.495229 170.014144,125.466542 174.416008,123.560391 C175.662601,123.02045 178.096935,122.217885 178.722907,120.709777 C179.870521,117.940857 177.545866,115.714565 175.753555,114.539872 C172.939358,112.695979 169.737272,111.713434 166.658241,110.702445 C164.655935,110.044781 162.457009,109.137293 160.371775,109.031264 L160.371775,109.031264 L160.371775,109.031264 Z" id="Shape" fill="#334D5C"></path>
                <path id="Shape" fill="#45B29D"></path>
                <path id="Shape" fill="#45B29D"></path>
                <path id="Shape" fill="#45B29D" d="M117.302791,110.137379 L117.436546,110.295395 L117.302791,110.137379 L117.302791,110.137379 Z"></path>
                <path id="Shape" fill="#45B29D" d="M125.863086,110.137379 L125.99684,110.295395 L125.863086,110.137379 L125.863086,110.137379 Z"></path>
                <path id="Shape" fill="#45B29D" d="M156.359136,110.295395 L156.492891,110.453411 L156.359136,110.295395 L156.359136,110.295395 Z"></path>
                <path id="Shape" fill="#45B29D"></path>
                <path id="Shape" fill="#45B29D" d="M51.495524,111.243493 L51.6292786,111.401509 L51.495524,111.243493 L51.495524,111.243493 Z"></path>
                <path id="Shape" fill="#45B29D" d="M180.56872,111.243493 L180.702475,111.401509 L180.56872,111.243493 L180.56872,111.243493 Z"></path>
                <path id="Shape" fill="#45B29D" d="M108.876251,111.401509 L109.010005,111.559526 L108.876251,111.401509 L108.876251,111.401509 Z"></path>
                <path id="Shape" fill="#45B29D" d="M29.6935229,111.717542 L29.8272775,111.875558 L29.6935229,111.717542 L29.6935229,111.717542 Z"></path>
                <path id="Shape" fill="#45B29D"></path>
                <path d="M28.4897314,112.191591 L28.623486,112.349607 L28.4897314,112.191591 L28.4897314,112.191591 Z M122.519221,112.66564 L122.652975,112.823656 L122.519221,112.66564 L122.519221,112.66564 Z" id="Shape" fill="#45B29D"></path>
                <path id="Shape" fill="#45B29D" d="M212.669826,112.66564 L212.803581,112.823656 L212.669826,112.66564 L212.669826,112.66564 Z"></path>
                <path id="Shape" fill="#45B29D" d="M183.110058,113.297705 L183.110058,113.929771 L183.110058,113.297705 L183.110058,113.297705 Z"></path>
                <path id="Shape" fill="#45B29D" d="M233.6693,113.929771 L233.803054,114.087787 L233.6693,113.929771 L233.6693,113.929771 Z"></path>
                <path id="Shape" fill="#45B29D" d="M114.895208,114.403819 L115.028963,114.561836 L114.895208,114.403819 L114.895208,114.403819 Z"></path>
                <path id="Shape" fill="#45B29D" d="M119.30911,114.403819 L119.442865,114.561836 L119.30911,114.403819 L119.30911,114.403819 Z"></path>
                <path id="Shape" fill="#45B29D"></path>
                <path d="M124.659294,114.877868 L124.793049,115.035885 L124.659294,114.877868 L124.659294,114.877868 Z M177.091101,115.509934 L177.224855,115.66795 L177.091101,115.509934 L177.091101,115.509934 Z" id="Shape" fill="#45B29D"></path>
                <path id="Shape" fill="#45B29D"></path>
                <path id="Shape" fill="#45B29D"></path>
                <path id="Shape" fill="#45B29D" d="M186.988942,116.300015 L186.988942,116.932081 L186.988942,116.300015 L186.988942,116.300015 Z"></path>
                <path id="Shape" fill="#45B29D"></path>
                <path d="M26.3496577,116.458032 L26.4834123,116.616048 L26.3496577,116.458032 L26.3496577,116.458032 Z M120.646656,116.458032 L120.780411,116.616048 L120.646656,116.458032 L120.646656,116.458032 Z M25.1458662,116.932081 L25.2796209,117.090097 L25.1458662,116.932081 L25.1458662,116.932081 Z M178.294892,116.932081 L178.428647,117.090097 L178.294892,116.932081 L178.294892,116.932081 Z M25.9483939,117.090097 L26.0821485,117.248113 L25.9483939,117.090097 L25.9483939,117.090097 Z" id="Shape" fill="#45B29D"></path>
                <path d="M116.232754,117.248113 L116.366509,117.40613 L116.232754,117.248113 L116.232754,117.248113 Z M200.899421,117.722162 L201.033175,117.880179 L200.899421,117.722162 L200.899421,117.722162 Z" id="Shape" fill="#45B29D"></path>
                <path id="Shape" fill="#45B29D"></path>
                <path id="Shape" fill="#45B29D" d="M25.2796209,118.196211 L25.4133755,118.354228 L25.2796209,118.196211 L25.2796209,118.196211 Z"></path>
                <path id="Shape" fill="#45B29D" d="M133.888362,118.354228 L134.022117,118.512244 L133.888362,118.354228 L133.888362,118.354228 Z"></path>
                <path id="Shape" fill="#45B29D"></path>
                <path id="Shape" fill="#45B29D" d="M138.302264,118.67026 L138.436019,118.828277 L138.302264,118.67026 L138.302264,118.67026 Z"></path>
                <path id="Shape" fill="#45B29D"></path>
                <path id="Shape" fill="#45B29D" d="M100.583465,119.460342 L100.71722,119.618358 L100.583465,119.460342 L100.583465,119.460342 Z"></path>
                <path d="M107.939968,119.460342 L108.073723,119.618358 L107.939968,119.460342 L107.939968,119.460342 Z M100.048447,119.618358 L100.182201,119.776375 L100.048447,119.618358 L100.048447,119.618358 Z M115.028963,119.934391 L115.162717,120.092407 L115.028963,119.934391 L115.028963,119.934391 Z" id="Shape" fill="#45B29D"></path>
                <path id="Shape" fill="#45B29D" d="M149.002633,120.092407 L149.136388,120.250424 L149.002633,120.092407 L149.002633,120.092407 Z"></path>
                <path d="M115.697736,120.40844 L115.83149,120.566456 L115.697736,120.40844 L115.697736,120.40844 Z M23.0057925,120.566456 L23.1395471,120.724473 L23.0057925,120.566456 L23.0057925,120.566456 Z M59.2532912,121.356538 L59.3870458,121.514554 L59.2532912,121.356538 L59.2532912,121.356538 Z" id="Shape" fill="#45B29D"></path>
                <path d="M23.540811,121.67257 L23.6745656,121.830587 L23.540811,121.67257 L23.540811,121.67257 Z M155.690363,122.304636 L155.824118,122.462652 L155.690363,122.304636 L155.690363,122.304636 Z" id="Shape" fill="#45B29D"></path>
                <path d="M146.59505,122.778685 L146.728805,122.936701 L146.59505,122.778685 L146.59505,122.778685 Z M175.486045,122.936701 L175.6198,123.094717 L175.486045,122.936701 L175.486045,122.936701 Z M149.136388,123.252734 L149.270142,123.41075 L149.136388,123.252734 L149.136388,123.252734 Z" id="Shape" fill="#45B29D"></path>
                <path id="Shape" fill="#45B29D"></path>
                <path d="M241.694576,124.200832 L241.828331,124.358848 L241.694576,124.200832 L241.694576,124.200832 Z M176.689837,124.358848 L176.823591,124.516864 L176.689837,124.358848 L176.689837,124.358848 Z M271.521854,124.358848 L271.655608,124.516864 L271.521854,124.358848 L271.521854,124.358848 Z M154.620326,125.14893 L154.754081,125.306946 L154.620326,125.14893 L154.620326,125.14893 Z M154.887836,125.306946 L155.02159,125.464962 L154.887836,125.306946 L154.887836,125.306946 Z M204.109531,125.464962 L204.243286,125.622979 L204.109531,125.464962 L204.109531,125.464962 Z M270.451817,125.780995 L270.585571,125.939011 L270.451817,125.780995 L270.451817,125.780995 Z" id="Shape" fill="#45B29D"></path>
                <path id="Shape" fill="#45B29D"></path>
                <path d="M103.92733,126.887109 L104.061085,127.045126 L103.92733,126.887109 L103.92733,126.887109 Z M172.275935,126.887109 L172.409689,127.045126 L172.275935,126.887109 L172.275935,126.887109 Z M242.229595,127.361158 L242.363349,127.519174 L242.229595,127.361158 L242.229595,127.361158 Z M170.135861,127.677191 L170.269616,127.835207 L170.135861,127.677191 L170.135861,127.677191 Z" id="Shape" fill="#45B29D"></path>
                <path id="Shape" fill="#45B29D" d="M199.42812,127.677191 L199.561875,127.835207 L199.42812,127.677191 L199.42812,127.677191 Z"></path>
                <path id="Shape" fill="#45B29D"></path>
                <path id="Shape" fill="#45B29D" d="M212.134808,128.309256 L212.134808,129.41537 C212.276588,129.014957 212.276588,128.709669 212.134808,128.309256 L212.134808,128.309256 L212.134808,128.309256 Z"></path>
                <path id="Shape" fill="#45B29D" d="M217.351237,128.309256 L217.484992,128.467272 L217.351237,128.309256 L217.351237,128.309256 Z"></path>
                <path id="Shape" fill="#45B29D" d="M164.250658,129.099338 L164.384413,129.257354 L164.250658,129.099338 L164.250658,129.099338 Z"></path>
                <path id="Shape" fill="#45B29D"></path>
                <path id="Shape" fill="#45B29D" d="M156.225382,130.521485 L156.359136,130.679501 L156.225382,130.521485 L156.225382,130.521485 Z"></path>
                <path id="Shape" fill="#45B29D" d="M154.352817,130.837517 L154.486572,130.995534 L154.352817,130.837517 L154.352817,130.837517 Z"></path>
                <path id="Shape" fill="#45B29D" d="M193.409163,131.15355 L193.409163,131.785615 L193.409163,131.15355 L193.409163,131.15355 Z"></path>
                <path id="Shape" fill="#45B29D"></path>
                <path id="Shape" fill="#45B29D" d="M201.033175,131.469583 L201.16693,131.627599 L201.033175,131.469583 L201.033175,131.469583 Z"></path>
                <path id="Shape" fill="#45B29D"></path>
                <path id="Shape" fill="#45B29D"></path>
                <path d="M263.630332,132.101648 L263.764086,132.259664 L263.630332,132.101648 L263.630332,132.101648 Z M150.07267,132.89173 L150.206424,133.049746 L150.07267,132.89173 L150.07267,132.89173 Z M201.835703,133.207762 L201.969458,133.365779 L201.835703,133.207762 L201.835703,133.207762 Z M222.835176,133.365779 L222.968931,133.523795 L222.835176,133.365779 L222.835176,133.365779 Z M262.42654,133.523795 L262.560295,133.681811 L262.42654,133.523795 L262.42654,133.523795 Z M262.292786,133.681811 L262.42654,133.839828 L262.292786,133.681811 L262.292786,133.681811 Z M262.159031,133.839828 L262.292786,133.997844 L262.159031,133.839828 L262.159031,133.839828 Z" id="Shape" fill="#45B29D"></path>
                <path id="Shape" fill="#45B29D" d="M263.496577,133.839828 L263.630332,133.997844 L263.496577,133.839828 L263.496577,133.839828 Z"></path>
                <path id="Shape" fill="#45B29D"></path>
                <path id="Shape" fill="#45B29D"></path>
                <path id="Shape" fill="#45B29D"></path>
                <path id="Shape" fill="#45B29D" d="M240.624539,135.736023 L240.758294,135.89404 L240.624539,135.736023 L240.624539,135.736023 Z"></path>
                <path id="Shape" fill="#45B29D" d="M127.334387,136.052056 L127.468141,136.210072 L127.334387,136.052056 L127.334387,136.052056 Z"></path>
                <path id="Shape" fill="#45B29D" d="M146.59505,136.210072 L146.728805,136.368089 L146.59505,136.210072 L146.59505,136.210072 Z"></path>
                <path id="Shape" fill="#45B29D"></path>
                <path id="Shape" fill="#45B29D" d="M143.384939,137.15817 L143.518694,137.316187 L143.384939,137.15817 L143.384939,137.15817 Z"></path>
                <path id="Shape" fill="#45B29D" d="M203.975777,137.790236 L204.109531,137.948252 L203.975777,137.790236 L203.975777,137.790236 Z"></path>
                <path id="Shape" fill="#45B29D" d="M20.1969458,137.948252 L20.3307004,138.106268 L20.1969458,137.948252 L20.1969458,137.948252 Z"></path>
                <path id="Shape" fill="#45B29D" d="M222.032649,138.580317 L222.166403,138.738334 L222.032649,138.580317 L222.032649,138.580317 Z"></path>
                <path id="Shape" fill="#45B29D" d="M20.464455,139.054366 L20.5982096,139.212383 L20.464455,139.054366 L20.464455,139.054366 Z"></path>
                <path d="M245.038441,139.054366 L245.172196,139.212383 L245.038441,139.054366 L245.038441,139.054366 Z M257.878884,139.212383 L258.012638,139.370399 L257.878884,139.212383 L257.878884,139.212383 Z M210.395998,140.160481 L210.529753,140.318497 L210.395998,140.160481 L210.395998,140.160481 Z M69.8199052,140.476513 L69.9536598,140.634529 L69.8199052,140.476513 L69.8199052,140.476513 Z" id="Shape" fill="#45B29D"></path>
                <path d="M66.8773038,144.584938 C68.3686677,144.306197 70.0880832,142.22291 70.3549236,140.476513 C68.8635598,140.755254 67.1441443,142.838541 66.8773038,144.584938 L66.8773038,144.584938 L66.8773038,144.584938 Z M49.7567141,144.426921 C50.8646035,144.163666 51.9060169,142.869354 52.164297,141.582627 C51.0434334,141.846199 50.0179368,143.125341 49.7567141,144.426921 L49.7567141,144.426921 L49.7567141,144.426921 Z" id="Shape" fill="#45B29D"></path>
                <path id="Shape" fill="#45B29D" d="M102.723539,141.582627 L102.857293,141.740644 L102.723539,141.582627 L102.723539,141.582627 Z"></path>
                <path id="Shape" fill="#45B29D"></path>
                <path id="Shape" fill="#45B29D"></path>
                <path d="M257.210111,142.214693 L257.343865,142.372709 L257.210111,142.214693 L257.210111,142.214693 Z M206.38336,142.688742 L206.517114,142.846758 L206.38336,142.688742 L206.38336,142.688742 Z" id="Shape" fill="#45B29D"></path>
                <path id="Shape" fill="#45B29D" d="M256.808847,142.846758 L256.942601,143.004774 L256.808847,142.846758 L256.808847,142.846758 Z"></path>
                <path id="Shape" fill="#45B29D" d="M131.882043,143.004774 L132.015798,143.162791 L131.882043,143.004774 L131.882043,143.004774 Z"></path>
                <path id="Shape" fill="#45B29D"></path>
                <path id="Shape" fill="#45B29D" d="M50.8267509,143.63684 L50.9605055,143.794856 L50.8267509,143.63684 L50.8267509,143.63684 Z"></path>
                <path id="Shape" fill="#45B29D" d="M254.668773,143.794856 L254.802528,143.952872 L254.668773,143.794856 L254.668773,143.794856 Z"></path>
                <path id="Shape" fill="#45B29D" d="M25.8146393,143.952872 L25.9483939,144.110889 L25.8146393,143.952872 L25.8146393,143.952872 Z"></path>
                <path d="M127.601896,143.952872 L127.73565,144.110889 L127.601896,143.952872 L127.601896,143.952872 Z M207.185887,144.268905 L207.319642,144.426921 L207.185887,144.268905 L207.185887,144.268905 Z M67.2785677,144.426921 L67.4123223,144.584938 L67.2785677,144.426921 L67.2785677,144.426921 Z M126.665613,144.426921 L126.799368,144.584938 L126.665613,144.426921 L126.665613,144.426921 Z M129.47446,144.584938 L129.608215,144.742954 L129.47446,144.584938 L129.47446,144.584938 Z M125.729331,144.90097 L125.863086,145.058987 L125.729331,144.90097 L125.729331,144.90097 Z" id="Shape" fill="#45B29D"></path>
                <path id="Shape" fill="#45B29D" d="M207.587151,145.058987 L207.720906,145.217003 L207.587151,145.058987 L207.587151,145.058987 Z"></path>
                <path id="Shape" fill="#45B29D" d="M43.8715113,145.217003 L44.0052659,145.375019 L43.8715113,145.217003 L43.8715113,145.217003 Z"></path>
                <path d="M207.988415,145.849068 L208.12217,146.007085 L207.988415,145.849068 L207.988415,145.849068 Z M27.6872038,146.481134 L27.8209584,146.63915 L27.6872038,146.481134 L27.6872038,146.481134 Z" id="Shape" fill="#45B29D"></path>
                <path id="Shape" fill="#45B29D" d="M197.020537,147.429231 L197.020537,148.061297 L197.020537,147.429231 L197.020537,147.429231 Z"></path>
                <path id="Shape" fill="#45B29D" d="M28.623486,147.587248 L28.7572407,147.745264 L28.623486,147.587248 L28.623486,147.587248 Z"></path>
                <path d="M28.7572407,147.745264 L28.8909953,147.90328 L28.7572407,147.745264 L28.7572407,147.745264 Z M253.464982,148.377329 L253.598736,148.535346 L253.464982,148.377329 L253.464982,148.377329 Z M244.102159,148.693362 L244.235914,148.851378 L244.102159,148.693362 L244.102159,148.693362 Z M193.676672,148.851378 L193.810427,149.009395 L193.676672,148.851378 L193.676672,148.851378 Z" id="Shape" fill="#45B29D"></path>
                <path id="Shape" fill="#45B29D"></path>
                <path id="Shape" fill="#45B29D" d="M103.258557,149.325427 L103.392312,149.483444 L103.258557,149.325427 L103.258557,149.325427 Z"></path>
                <path id="Shape" fill="#45B29D" d="M30.4960506,149.64146 L30.6298052,149.799476 L30.4960506,149.64146 L30.4960506,149.64146 Z"></path>
                <path id="Shape" fill="#45B29D" d="M60.5908373,150.115509 L60.7245919,150.273525 L60.5908373,150.115509 L60.5908373,150.115509 Z"></path>
                <path id="Shape" fill="#45B29D" d="M221.631385,150.905591 L221.76514,151.063607 L221.631385,150.905591 L221.631385,150.905591 Z"></path>
                <path id="Shape" fill="#45B29D" d="M115.965245,151.063607 L116.098999,151.221623 L115.965245,151.063607 L115.965245,151.063607 Z"></path>
                <path id="Shape" fill="#45B29D" d="M210.797262,151.063607 L210.931016,151.221623 L210.797262,151.063607 L210.797262,151.063607 Z"></path>
                <path id="Shape" fill="#45B29D"></path>
                <path id="Shape" fill="#45B29D" d="M112.220116,152.011705 L112.35387,152.169721 L112.220116,152.011705 L112.220116,152.011705 Z"></path>
                <path d="M193.810427,152.011705 L193.944181,152.169721 L193.810427,152.011705 L193.810427,152.011705 Z M43.8715113,152.64377 L44.0052659,152.801787 L43.8715113,152.64377 L43.8715113,152.64377 Z" id="Shape" fill="#45B29D"></path>
                <path id="Shape" fill="#45B29D"></path>
                <path id="Shape" fill="#45B29D"></path>
                <path id="Shape" fill="#45B29D" d="M184.04634,154.223933 L184.180095,154.38195 L184.04634,154.223933 L184.04634,154.223933 Z"></path>
                <path d="M35.0437072,154.38195 L35.1774618,154.539966 L35.0437072,154.38195 L35.0437072,154.38195 Z M44.8077936,155.804097 L44.9415482,155.962113 L44.8077936,155.804097 L44.8077936,155.804097 Z" id="Shape" fill="#45B29D"></path>
                <path d="M32.3686151,156.120129 L32.5023697,156.278146 L32.3686151,156.120129 L32.3686151,156.120129 Z M196.485519,157.068227 L196.619273,157.226244 L196.485519,157.068227 L196.485519,157.068227 Z M40.2601369,158.016325 L40.3938915,158.174342 L40.2601369,158.016325 L40.2601369,158.016325 Z M195.415482,158.332358 L195.549236,158.490374 L195.415482,158.332358 L195.415482,158.332358 Z" id="Shape" fill="#45B29D"></path>
                <path d="M36.6487625,159.438472 L36.7825171,159.596489 L36.6487625,159.438472 L36.6487625,159.438472 Z M41.3301738,160.228554 L41.4639284,160.38657 L41.3301738,160.228554 L41.3301738,160.228554 Z M62.9984202,166.075158 L63.1321748,166.233174 L62.9984202,166.075158 L62.9984202,166.075158 Z" id="Shape" fill="#45B29D"></path>
                <path id="Shape" fill="#45B29D" d="M61.5271195,167.971354 L61.6608741,168.12937 L61.5271195,167.971354 L61.5271195,167.971354 Z"></path>
            </g>
        </g>
    </g>
</svg>